<svg width="1200" height="600" viewBox="0 0 1200 600" xmlns="http://www.w3.org/2000/svg">
  <rect width="1200" height="600" fill="white"/>
  
  <text x="600" y="50" font-family="Arial" font-size="28" font-weight="bold" text-anchor="middle" fill="#455a64">TROAS Config Resolution Waterfall</text>

  <!-- L1 -->
  <rect x="300" y="100" width="600" height="80" rx="5" fill="#e1f5fe" stroke="#0055aa" stroke-width="2"/>
  <text x="320" y="130" font-family="Arial" font-size="18" font-weight="bold" fill="#0055aa">Level 1: Request Params (troasNode)</text>
  <text x="320" y="155" font-family="Arial" font-size="14" fill="#0055aa">Populated from Caffeine caches by Bidding Engine</text>

  <!-- Version Check Gate -->
  <path d="M600 180 L600 240" stroke="#bf360c" stroke-width="4" fill="none" marker-end="url(#arrow)"/>
  <rect x="500" y="210" width="200" height="60" rx="10" fill="#fff3e0" stroke="#bf360c" stroke-width="3"/>
  <text x="600" y="240" font-family="Arial" font-size="14" font-weight="bold" text-anchor="middle" fill="#bf360c">VERSION CHECK</text>
  <text x="600" y="258" font-family="Arial" font-size="10" text-anchor="middle" fill="#bf360c">(Cache vs. Global CCM)</text>

  <!-- L2 -->
  <rect x="350" y="300" width="500" height="60" rx="5" fill="#e8f5e9" stroke="#1b5e20" stroke-width="2"/>
  <text x="370" y="335" font-family="Arial" font-size="16" font-weight="bold" fill="#1b5e20">Level 2: Placement CSV (Azure Blob)</text>

  <!-- L3 -->
  <rect x="400" y="380" width="400" height="60" rx="5" fill="#fff3e0" stroke="#e65100" stroke-width="2"/>
  <text x="420" y="415" font-family="Arial" font-size="16" font-weight="bold" fill="#e65100">Level 3: Global Defaults (CCM)</text>

  <!-- L4 -->
  <rect x="450" y="460" width="300" height="60" rx="5" fill="#f5f5f5" stroke="#455a64" stroke-width="2"/>
  <text x="470" y="495" font-family="Arial" font-size="16" font-weight="bold" fill="#455a64">Level 4: Hard-coded Defaults</text>

  <!-- Flow Arrows -->
  <path d="M600 270 L600 300" stroke="#455a64" stroke-width="2" fill="none" marker-end="url(#arrow)"/>
  <path d="M600 360 L600 380" stroke="#455a64" stroke-width="2" fill="none" marker-end="url(#arrow)"/>
  <path d="M600 440 L600 460" stroke="#455a64" stroke-width="2" fill="none" marker-end="url(#arrow)"/>

  <!-- Mismatch callout -->
  <path d="M700 240 L850 240 L850 380" stroke="#bf360c" stroke-width="2" stroke-dasharray="5,2" fill="none" marker-end="url(#arrow)"/>
  <text x="860" y="300" font-family="Arial" font-size="12" fill="#bf360c" font-weight="bold" transform="rotate(90, 860, 300)">VERSION MISMATCH FALLBACK</text>

  <defs>
    <marker id="arrow" markerWidth="10" markerHeight="7" refX="10" refY="3.5" orient="auto">
      <polygon points="0 0, 10 3.5, 0 7" fill="context-stroke" />
    </marker>
  </defs>
</svg>