<svg width="1400" height="640" viewBox="0 0 1400 640" xmlns="http://www.w3.org/2000/svg" font-family="'Segoe UI', Arial, sans-serif">
<defs>
  <marker id="a1" viewBox="0 0 10 10" refX="9" refY="5" markerWidth="7" markerHeight="7" orient="auto-start-reverse"><path d="M0,0 L10,5 L0,10z" fill="#1565c0"/></marker>
  <marker id="a2" viewBox="0 0 10 10" refX="9" refY="5" markerWidth="7" markerHeight="7" orient="auto-start-reverse"><path d="M0,0 L10,5 L0,10z" fill="#1b5e20"/></marker>
  <marker id="a3" viewBox="0 0 10 10" refX="9" refY="5" markerWidth="7" markerHeight="7" orient="auto-start-reverse"><path d="M0,0 L10,5 L0,10z" fill="#c62828"/></marker>
  <marker id="a4" viewBox="0 0 10 10" refX="9" refY="5" markerWidth="7" markerHeight="7" orient="auto-start-reverse"><path d="M0,0 L10,5 L0,10z" fill="#e65100"/></marker>
  <marker id="a5" viewBox="0 0 10 10" refX="9" refY="5" markerWidth="7" markerHeight="7" orient="auto-start-reverse"><path d="M0,0 L10,5 L0,10z" fill="#546e7a"/></marker>
  <marker id="a6" viewBox="0 0 10 10" refX="9" refY="5" markerWidth="7" markerHeight="7" orient="auto-start-reverse"><path d="M0,0 L10,5 L0,10z" fill="#6a1b9a"/></marker>
</defs>

<rect width="1400" height="640" fill="#f8fafc"/>
<text x="700" y="36" font-size="22" font-weight="700" text-anchor="middle" fill="#1a237e">TROAS E2E Flow — Ingestion + Serving</text>

<!-- ═══ INGESTION PATH (async) ═══ -->
<rect x="20" y="58" width="1360" height="225" rx="14" fill="#e8f0fe" stroke="#1565c0" stroke-width="2"/>
<rect x="20" y="58" width="1360" height="36" rx="14" fill="#1565c0"/><rect x="20" y="76" width="1360" height="18" fill="#1565c0"/>
<text x="700" y="84" font-size="13" font-weight="700" letter-spacing="2" text-anchor="middle" fill="white">INGESTION PATH — Async / Eventually Consistent</text>

<!-- Advertiser -->
<rect x="50" y="120" width="140" height="80" rx="10" fill="#1565c0"/>
<text x="120" y="158" font-size="16" font-weight="700" text-anchor="middle" fill="white">Advertiser</text>
<text x="120" y="177" font-size="11" text-anchor="middle" fill="#bbdefb">Sets targetRoas</text>
<text x="120" y="192" font-size="11" text-anchor="middle" fill="#bbdefb">CampaignSvc UI</text>

<!-- CampaignSvc service -->
<rect x="240" y="120" width="130" height="80" rx="10" fill="#1976d2"/>
<text x="305" y="155" font-size="15" font-weight="700" text-anchor="middle" fill="white">CampaignSvc</text>
<text x="305" y="174" font-size="11" text-anchor="middle" fill="#bbdefb">Validate + persist</text>
<text x="305" y="190" font-size="11" text-anchor="middle" fill="#bbdefb">Azure SQL</text>

<!-- Kafka -->
<rect x="420" y="120" width="120" height="80" rx="10" fill="#e65100"/>
<text x="480" y="158" font-size="15" font-weight="700" text-anchor="middle" fill="white">Kafka</text>
<text x="480" y="177" font-size="11" text-anchor="middle" fill="#ffccbc">campaign-events</text>
<text x="480" y="193" font-size="11" text-anchor="middle" fill="#ffccbc">topic</text>

<!-- IndexPublisher -->
<rect x="590" y="120" width="140" height="80" rx="10" fill="#b71c1c"/>
<text x="660" y="155" font-size="15" font-weight="700" text-anchor="middle" fill="white">IndexPublisher</text>
<text x="660" y="174" font-size="11" text-anchor="middle" fill="#ffcdd2">Enrich via ItemRegistry</text>
<text x="660" y="190" font-size="11" text-anchor="middle" fill="#ffcdd2">multi-tenant fanout</text>

<!-- Solr/Vespa -->
<rect x="790" y="108" width="140" height="62" rx="10" fill="#e53935"/>
<text x="860" y="136" font-size="14" font-weight="700" text-anchor="middle" fill="white">Solr / Vespa</text>
<text x="860" y="155" font-size="11" text-anchor="middle" fill="#ffcdd2">Ad candidate index</text>

<!-- Cassandra -->
<rect x="790" y="185" width="140" height="62" rx="10" fill="#e57373"/>
<text x="860" y="213" font-size="14" font-weight="700" text-anchor="middle" fill="white">Cassandra</text>
<text x="860" y="232" font-size="11" text-anchor="middle" fill="#ffcdd2">Eligibility · bid params</text>

<!-- BiddingEngine caches pre-load -->
<rect x="990" y="120" width="170" height="130" rx="10" fill="#ede7f6"/>
<text x="1075" y="148" font-size="14" font-weight="700" text-anchor="middle" fill="#4a148c">BiddingEngine</text>
<text x="1075" y="168" font-size="12" font-weight="600" text-anchor="middle" fill="#6a1b9a">Caffeine Cache</text>
<text x="1075" y="188" font-size="11" text-anchor="middle" fill="#37474f">AdGroup params</text>
<text x="1075" y="206" font-size="11" text-anchor="middle" fill="#37474f">Item bid params</text>
<text x="1075" y="224" font-size="11" text-anchor="middle" fill="#37474f">DayPart factors</text>
<text x="1075" y="242" font-size="11" text-anchor="middle" fill="#546e7a">Pre-loaded at startup</text>

<!-- Arrows in ingestion -->
<line x1="190" y1="160" x2="238" y2="160" stroke="#1565c0" stroke-width="2.5" marker-end="url(#a1)"/>
<line x1="370" y1="160" x2="418" y2="160" stroke="#1565c0" stroke-width="2.5" marker-end="url(#a1)"/>
<line x1="540" y1="160" x2="588" y2="160" stroke="#e65100" stroke-width="2.5" marker-end="url(#a4)"/>
<path d="M730 139 L788 139" stroke="#c62828" stroke-width="2.5" marker-end="url(#a3)" fill="none"/>
<path d="M730 216 L788 216" stroke="#c62828" stroke-width="2.5" marker-end="url(#a3)" fill="none"/>
<path d="M860 170 L988 170" stroke="#6a1b9a" stroke-width="2" stroke-dasharray="5,3" marker-end="url(#a6)" fill="none"/>

<!-- ═══ SERVING PATH (sync <50ms) ═══ -->
<rect x="20" y="308" width="1360" height="310" rx="14" fill="#e8f5e9" stroke="#2e7d32" stroke-width="2"/>
<rect x="20" y="308" width="1360" height="36" rx="14" fill="#1b5e20"/><rect x="20" y="326" width="1360" height="18" fill="#1b5e20"/>
<text x="700" y="334" font-size="13" font-weight="700" letter-spacing="2" text-anchor="middle" fill="white">SERVING PATH — Synchronous &lt;50ms p99</text>

<!-- Shopper -->
<rect x="50" y="372" width="120" height="65" rx="10" fill="#1b5e20"/>
<text x="110" y="403" font-size="15" font-weight="700" text-anchor="middle" fill="white">Shopper</text>
<text x="110" y="421" font-size="11" text-anchor="middle" fill="#c8e6c9">Search / browse</text>

<!-- AdGateway -->
<rect x="220" y="372" width="120" height="65" rx="10" fill="#2e7d32"/>
<text x="280" y="403" font-size="15" font-weight="700" text-anchor="middle" fill="white">AdGateway</text>
<text x="280" y="421" font-size="11" text-anchor="middle" fill="#c8e6c9">GraphQL GW</text>

<!-- AdOrchestrator -->
<rect x="390" y="372" width="120" height="65" rx="10" fill="#388e3c"/>
<text x="450" y="403" font-size="15" font-weight="700" text-anchor="middle" fill="white">AdOrchestrator</text>
<text x="450" y="421" font-size="11" text-anchor="middle" fill="#c8e6c9">Orchestrator</text>

<!-- BiddingEngine -->
<rect x="560" y="372" width="120" height="65" rx="10" fill="#43a047"/>
<text x="620" y="403" font-size="15" font-weight="700" text-anchor="middle" fill="white">BiddingEngine</text>
<text x="620" y="421" font-size="11" text-anchor="middle" fill="#c8e6c9">Bidding Engine</text>

<!-- AuctionEngine -->
<rect x="730" y="372" width="150" height="65" rx="10" fill="#004d40"/>
<text x="805" y="400" font-size="15" font-weight="700" text-anchor="middle" fill="white">AuctionEngine</text>
<text x="805" y="418" font-size="11" text-anchor="middle" fill="#b2dfdb">Auction Engine</text>
<text x="805" y="433" font-size="11" text-anchor="middle" fill="#b2dfdb">TROAS bid</text>

<!-- ML/MLPlatform -->
<rect x="935" y="360" width="130" height="45" rx="10" fill="#6a1b9a"/>
<text x="1000" y="384" font-size="13" font-weight="700" text-anchor="middle" fill="white">MLPlatform / Triton</text>
<text x="1000" y="399" font-size="10" text-anchor="middle" fill="#e1bee7">ML scoring</text>

<!-- Feast -->
<rect x="935" y="420" width="130" height="45" rx="10" fill="#7b1fa2"/>
<text x="1000" y="445" font-size="13" font-weight="700" text-anchor="middle" fill="white">Feast</text>
<text x="1000" y="460" font-size="10" text-anchor="middle" fill="#e1bee7">Feature lookup</text>

<!-- BudgetSvc budget check -->
<rect x="935" y="480" width="130" height="45" rx="10" fill="#1e88e5"/>
<text x="1000" y="504" font-size="13" font-weight="700" text-anchor="middle" fill="white">BudgetSvc</text>
<text x="1000" y="519" font-size="10" text-anchor="middle" fill="#e3f2fd">Budget eligible?</text>

<!-- Response arrow back -->
<rect x="1120" y="372" width="120" height="65" rx="10" fill="#1b5e20"/>
<text x="1180" y="400" font-size="14" font-weight="700" text-anchor="middle" fill="white">Response</text>
<text x="1180" y="419" font-size="11" text-anchor="middle" fill="#c8e6c9">Top-N ranked</text>
<text x="1180" y="434" font-size="11" text-anchor="middle" fill="#c8e6c9">ads</text>

<!-- Serving arrows -->
<line x1="170" y1="404" x2="218" y2="404" stroke="#81c784" stroke-width="2.5" marker-end="url(#a2)"/>
<line x1="340" y1="404" x2="388" y2="404" stroke="#81c784" stroke-width="2.5" marker-end="url(#a2)"/>
<line x1="510" y1="404" x2="558" y2="404" stroke="#81c784" stroke-width="2.5" marker-end="url(#a2)"/>
<line x1="680" y1="404" x2="728" y2="404" stroke="#81c784" stroke-width="2.5" marker-end="url(#a2)"/>

<!-- AuctionEngine ↔ ML/Feast/budget -->
<path d="M880 388 L933 388" stroke="#ce93d8" stroke-width="2" marker-end="url(#a6)" fill="none"/>
<path d="M880 444 L933 444" stroke="#ce93d8" stroke-width="2" marker-end="url(#a6)" fill="none"/>
<path d="M880 500 L933 500" stroke="#1e88e5" stroke-width="1.5" stroke-dasharray="4,3" marker-end="url(#a1)" fill="none"/>

<!-- AuctionEngine → response -->
<line x1="880" y1="404" x2="1118" y2="404" stroke="#81c784" stroke-width="2.5" marker-end="url(#a2)"/>

<!-- Timing annotation -->
<rect x="50" y="468" width="820" height="30" rx="6" fill="none" stroke="#2e7d32" stroke-width="1.5" stroke-dasharray="6,3"/>
<text x="460" y="488" font-size="12" font-weight="600" text-anchor="middle" fill="#1b5e20">← entire serving path must complete in &lt;50ms (p99) →</text>

<!-- Kafka response logs -->
<rect x="730" y="530" width="150" height="40" rx="8" fill="#ef9a9a" opacity="0.9"/>
<text x="805" y="549" font-size="12" font-weight="700" text-anchor="middle" fill="#7f0000">Kafka</text>
<text x="805" y="564" font-size="10" text-anchor="middle" fill="#7f0000">ad_auction_logs</text>
<path d="M805 437 L805 528" stroke="#e57373" stroke-width="1.5" stroke-dasharray="4,3" marker-end="url(#a3)" fill="none"/>
</svg>
