<svg width="1400" height="560" viewBox="0 0 1400 560" xmlns="http://www.w3.org/2000/svg" font-family="'Segoe UI', Arial, sans-serif">
<defs>
  <marker id="a1" viewBox="0 0 10 10" refX="9" refY="5" markerWidth="7" markerHeight="7" orient="auto-start-reverse"><path d="M0,0 L10,5 L0,10z" fill="#546e7a"/></marker>
  <marker id="a2" viewBox="0 0 10 10" refX="9" refY="5" markerWidth="7" markerHeight="7" orient="auto-start-reverse"><path d="M0,0 L10,5 L0,10z" fill="#1b5e20"/></marker>
  <marker id="a3" viewBox="0 0 10 10" refX="9" refY="5" markerWidth="7" markerHeight="7" orient="auto-start-reverse"><path d="M0,0 L10,5 L0,10z" fill="#c62828"/></marker>
  <marker id="a4" viewBox="0 0 10 10" refX="9" refY="5" markerWidth="7" markerHeight="7" orient="auto-start-reverse"><path d="M0,0 L10,5 L0,10z" fill="#e65100"/></marker>
</defs>

<rect width="1400" height="560" fill="#f8fafc"/>
<text x="700" y="36" font-size="22" font-weight="700" text-anchor="middle" fill="#1a237e">TROAS Experiment Strategy — A/B Lifecycle</text>
<text x="700" y="60" font-size="13" text-anchor="middle" fill="#546e7a">Advertisers run a controlled experiment before committing to TROAS · CampaignSvc · ExperimentStrategy</text>

<!-- ═══ TOP: Experiment State Machine ═══ -->
<!-- States: SCHEDULED → IN_PROGRESS → READY_TO_REVIEW → APPLIED/ENDED/CANCELED -->

<!-- SCHEDULED -->
<rect x="40" y="95" width="160" height="90" rx="14" fill="#e3f2fd" stroke="#1565c0" stroke-width="2.5"/>
<rect x="40" y="95" width="160" height="32" rx="14" fill="#1565c0"/><rect x="40" y="115" width="160" height="12" fill="#1565c0"/>
<text x="120" y="121" font-size="12" font-weight="700" text-anchor="middle" fill="white">SCHEDULED</text>
<text x="120" y="153" font-size="11" text-anchor="middle" fill="#1565c0">Campaign cloned</text>
<text x="120" y="170" font-size="11" text-anchor="middle" fill="#37474f">Awaiting start date</text>

<!-- IN_PROGRESS -->
<rect x="280" y="95" width="160" height="90" rx="14" fill="#e8f5e9" stroke="#2e7d32" stroke-width="2.5"/>
<rect x="280" y="95" width="160" height="32" rx="14" fill="#1b5e20"/><rect x="280" y="115" width="160" height="12" fill="#1b5e20"/>
<text x="360" y="121" font-size="12" font-weight="700" text-anchor="middle" fill="white">IN_PROGRESS</text>
<text x="360" y="153" font-size="11" text-anchor="middle" fill="#1b5e20">Control: original bid</text>
<text x="360" y="170" font-size="11" text-anchor="middle" fill="#1b5e20">Test: TROAS bid</text>

<!-- LEARNING_PAUSED (mid-experiment) -->
<rect x="280" y="220" width="160" height="75" rx="14" fill="#fce4ec" stroke="#c62828" stroke-width="2"/>
<text x="360" y="252" font-size="12" font-weight="700" text-anchor="middle" fill="#c62828">LEARNING_PAUSED</text>
<text x="360" y="272" font-size="11" text-anchor="middle" fill="#37474f">Budget depleted</text>

<!-- READY_TO_REVIEW -->
<rect x="520" y="95" width="160" height="90" rx="14" fill="#fff3e0" stroke="#e65100" stroke-width="2.5"/>
<rect x="520" y="95" width="160" height="32" rx="14" fill="#e65100"/><rect x="520" y="115" width="160" height="12" fill="#e65100"/>
<text x="600" y="121" font-size="12" font-weight="700" text-anchor="middle" fill="white">READY_TO_REVIEW</text>
<text x="600" y="153" font-size="11" text-anchor="middle" fill="#e65100">N days elapsed</text>
<text x="600" y="170" font-size="11" text-anchor="middle" fill="#37474f">Reports generated</text>

<!-- APPLIED -->
<rect x="760" y="75" width="160" height="90" rx="14" fill="#e8f5e9" stroke="#1b5e20" stroke-width="2.5"/>
<rect x="760" y="75" width="160" height="32" rx="14" fill="#1b5e20"/><rect x="760" y="95" width="160" height="12" fill="#1b5e20"/>
<text x="840" y="101" font-size="12" font-weight="700" text-anchor="middle" fill="white">APPLIED</text>
<text x="840" y="134" font-size="11" text-anchor="middle" fill="#1b5e20">Control migrated</text>
<text x="840" y="151" font-size="11" text-anchor="middle" fill="#1b5e20">to TROAS</text>

<!-- ENDED -->
<rect x="760" y="185" width="160" height="75" rx="14" fill="#f5f5f5" stroke="#546e7a" stroke-width="2"/>
<text x="840" y="223" font-size="12" font-weight="700" text-anchor="middle" fill="#546e7a">ENDED</text>
<text x="840" y="243" font-size="11" text-anchor="middle" fill="#37474f">Advertiser chose not</text>
<text x="840" y="259" font-size="11" text-anchor="middle" fill="#37474f">to apply</text>

<!-- CANCELED -->
<rect x="40" y="220" width="160" height="75" rx="14" fill="#fce4ec" stroke="#c62828" stroke-width="1.5"/>
<text x="120" y="257" font-size="12" font-weight="700" text-anchor="middle" fill="#c62828">CANCELED</text>
<text x="120" y="277" font-size="11" text-anchor="middle" fill="#37474f">Advertiser aborts</text>

<!-- Arrows between states -->
<line x1="200" y1="140" x2="278" y2="140" stroke="#546e7a" stroke-width="2.5" marker-end="url(#a1)"/>
<text x="239" y="133" font-size="10" text-anchor="middle" fill="#546e7a">start date</text>

<line x1="440" y1="140" x2="518" y2="140" stroke="#546e7a" stroke-width="2.5" marker-end="url(#a1)"/>
<text x="479" y="133" font-size="10" text-anchor="middle" fill="#546e7a">N days done</text>

<line x1="680" y1="130" x2="758" y2="117" stroke="#1b5e20" stroke-width="2.5" marker-end="url(#a2)"/>
<text x="719" y="118" font-size="10" text-anchor="middle" fill="#1b5e20">apply</text>

<line x1="680" y1="155" x2="758" y2="216" stroke="#546e7a" stroke-width="2" marker-end="url(#a1)"/>
<text x="719" y="200" font-size="10" text-anchor="middle" fill="#546e7a">end</text>

<!-- LEARNING_PAUSED ↔ IN_PROGRESS -->
<path d="M360 185 L360 218" stroke="#c62828" stroke-width="2" marker-end="url(#a3)" fill="none"/>
<path d="M330 220 L330 185" stroke="#1b5e20" stroke-width="2" marker-end="url(#a2)" fill="none"/>
<text x="312" y="205" font-size="10" fill="#c62828">pause</text>
<text x="348" y="205" font-size="10" fill="#1b5e20">resume</text>

<!-- CANCELED from multiple states -->
<path d="M120 185 L120 218" stroke="#c62828" stroke-width="2" stroke-dasharray="4,3" marker-end="url(#a3)" fill="none"/>

<!-- ═══ BOTTOM: Validation Rules ═══ -->
<rect x="40" y="335" width="1320" height="200" rx="14" fill="white" stroke="#90a4ae" stroke-width="1.5"/>
<text x="700" y="362" font-size="15" font-weight="700" text-anchor="middle" fill="#1a237e">Experiment Creation Validation Rules</text>

<!-- Two columns -->
<line x1="700" y1="375" x2="700" y2="520" stroke="#e0e0e0" stroke-width="1.5"/>

<!-- Left column -->
<text x="80" y="395" font-size="13" font-weight="600" fill="#2e7d32">✓ Campaign must be LIVE</text>
<text x="80" y="417" font-size="13" font-weight="600" fill="#2e7d32">✓ Daily budget required (not lifetime)</text>
<text x="80" y="439" font-size="13" font-weight="600" fill="#2e7d32">✓ No other active experiments on campaign</text>
<text x="80" y="461" font-size="13" font-weight="600" fill="#2e7d32">✓ targetRoas ≥ minTargetRoas (0.001)</text>
<text x="80" y="483" font-size="13" font-weight="600" fill="#c62828">✗ Campaign already on TROAS → blocked</text>
<text x="80" y="505" font-size="13" font-weight="600" fill="#c62828">✗ Offsite campaigns → blocked</text>

<!-- Right column: What reports show -->
<text x="740" y="395" font-size="13" font-weight="700" fill="#1a237e">Reports Generated (READY_TO_REVIEW)</text>
<text x="740" y="420" font-size="12" text-anchor="start" fill="#37474f">→  ROAS delta: Test vs Control campaign</text>
<text x="740" y="442" font-size="12" text-anchor="start" fill="#37474f">→  Revenue delta: incremental lift from TROAS</text>
<text x="740" y="464" font-size="12" text-anchor="start" fill="#37474f">→  Impression share: auction win rate comparison</text>
<text x="740" y="486" font-size="12" text-anchor="start" fill="#37474f">→  Spend efficiency: cost-per-ROAS-unit</text>
<text x="740" y="508" font-size="12" font-weight="600" text-anchor="start" fill="#1b5e20">→  Advertiser decides: Apply or End experiment</text>
</svg>
