<svg width="1400" height="700" viewBox="0 0 1400 700" xmlns="http://www.w3.org/2000/svg" font-family="'Segoe UI', Arial, sans-serif">
<defs>
  <marker id="ab" viewBox="0 0 10 10" refX="9" refY="5" markerWidth="7" markerHeight="7" orient="auto-start-reverse"><path d="M0,0 L10,5 L0,10z" fill="#1565c0"/></marker>
  <marker id="ar" viewBox="0 0 10 10" refX="9" refY="5" markerWidth="7" markerHeight="7" orient="auto-start-reverse"><path d="M0,0 L10,5 L0,10z" fill="#c62828"/></marker>
  <marker id="ag" viewBox="0 0 10 10" refX="9" refY="5" markerWidth="7" markerHeight="7" orient="auto-start-reverse"><path d="M0,0 L10,5 L0,10z" fill="#2e7d32"/></marker>
  <marker id="ap" viewBox="0 0 10 10" refX="9" refY="5" markerWidth="7" markerHeight="7" orient="auto-start-reverse"><path d="M0,0 L10,5 L0,10z" fill="#6a1b9a"/></marker>
  <marker id="ao" viewBox="0 0 10 10" refX="9" refY="5" markerWidth="7" markerHeight="7" orient="auto-start-reverse"><path d="M0,0 L10,5 L0,10z" fill="#e65100"/></marker>
  <marker id="agy" viewBox="0 0 10 10" refX="9" refY="5" markerWidth="7" markerHeight="7" orient="auto-start-reverse"><path d="M0,0 L10,5 L0,10z" fill="#546e7a"/></marker>
</defs>

<rect width="1400" height="700" fill="#f0f4f8"/>
<text x="700" y="38" font-size="22" font-weight="700" text-anchor="middle" fill="#1a237e">Sponsored Products Ad Platform — 4 Planes</text>

<!-- TOOLING PLANE -->
<rect x="20" y="55" width="330" height="300" rx="14" fill="#e3f2fd" stroke="#1565c0" stroke-width="2.5"/>
<rect x="20" y="55" width="330" height="38" rx="14" fill="#1565c0"/><rect x="20" y="74" width="330" height="19" fill="#1565c0"/>
<text x="185" y="81" font-size="13" font-weight="700" letter-spacing="2" text-anchor="middle" fill="white">TOOLING</text>
<rect x="50" y="108" width="270" height="62" rx="10" fill="#1565c0"/>
<text x="185" y="135" font-size="17" font-weight="700" text-anchor="middle" fill="white">CampaignSvc</text>
<text x="185" y="155" font-size="11" text-anchor="middle" fill="#bbdefb">Campaign CRUD · 121 REST routes</text>
<rect x="50" y="185" width="270" height="54" rx="10" fill="#1976d2"/>
<text x="185" y="213" font-size="15" font-weight="700" text-anchor="middle" fill="white">ExperimentMgr</text>
<text x="185" y="231" font-size="11" text-anchor="middle" fill="#bbdefb">A/B Experiment Manager</text>
<rect x="50" y="253" width="270" height="54" rx="10" fill="#1e88e5"/>
<text x="185" y="281" font-size="15" font-weight="700" text-anchor="middle" fill="white">BudgetSvc</text>
<text x="185" y="299" font-size="11" text-anchor="middle" fill="#e3f2fd">Budget Pacing · Azure SQL ledger</text>
<rect x="50" y="320" width="125" height="24" rx="6" fill="#42a5f5"/>
<text x="112" y="336" font-size="11" font-weight="600" text-anchor="middle" fill="white">ClickTracker (click dedup)</text>
<rect x="188" y="320" width="132" height="24" rx="6" fill="#42a5f5"/>
<text x="254" y="336" font-size="11" font-weight="600" text-anchor="middle" fill="white">Azure SQL / Oracle</text>

<!-- INDEXING PLANE -->
<rect x="385" y="55" width="330" height="300" rx="14" fill="#fce4ec" stroke="#c62828" stroke-width="2.5"/>
<rect x="385" y="55" width="330" height="38" rx="14" fill="#c62828"/><rect x="385" y="74" width="330" height="19" fill="#c62828"/>
<text x="550" y="81" font-size="13" font-weight="700" letter-spacing="2" text-anchor="middle" fill="white">INDEXING</text>
<rect x="415" y="108" width="270" height="62" rx="10" fill="#b71c1c"/>
<text x="550" y="135" font-size="17" font-weight="700" text-anchor="middle" fill="white">IndexPublisher</text>
<text x="550" y="155" font-size="11" text-anchor="middle" fill="#ffcdd2">Kafka consumer · enrichment · fanout</text>
<rect x="415" y="185" width="123" height="54" rx="10" fill="#e53935"/>
<text x="476" y="213" font-size="13" font-weight="700" text-anchor="middle" fill="white">Solr / Vespa</text>
<text x="476" y="231" font-size="10" text-anchor="middle" fill="#ffcdd2">Ad candidate index</text>
<rect x="552" y="185" width="133" height="54" rx="10" fill="#e53935"/>
<text x="618" y="213" font-size="13" font-weight="700" text-anchor="middle" fill="white">Cassandra</text>
<text x="618" y="231" font-size="10" text-anchor="middle" fill="#ffcdd2">Eligibility cache</text>
<rect x="415" y="254" width="270" height="54" rx="10" fill="#ef9a9a"/>
<text x="550" y="281" font-size="14" font-weight="700" text-anchor="middle" fill="#7f0000">Kafka</text>
<text x="550" y="300" font-size="10" text-anchor="middle" fill="#7f0000">campaign-events · click-events · bid-logs</text>
<rect x="415" y="321" width="270" height="23" rx="6" fill="#e57373"/>
<text x="550" y="337" font-size="10" font-weight="600" text-anchor="middle" fill="white">ItemRegistry — Item/inventory enrichment API</text>

<!-- AD SERVING PLANE -->
<rect x="20" y="393" width="695" height="290" rx="14" fill="#e8f5e9" stroke="#2e7d32" stroke-width="2.5"/>
<rect x="20" y="393" width="695" height="38" rx="14" fill="#2e7d32"/><rect x="20" y="411" width="695" height="20" fill="#2e7d32"/>
<text x="368" y="419" font-size="13" font-weight="700" letter-spacing="2" text-anchor="middle" fill="white">AD SERVING — &lt;50ms p99</text>
<rect x="50" y="449" width="140" height="65" rx="10" fill="#1b5e20"/>
<text x="120" y="481" font-size="17" font-weight="700" text-anchor="middle" fill="white">AdGateway</text>
<text x="120" y="500" font-size="10" text-anchor="middle" fill="#c8e6c9">GraphQL Gateway</text>
<rect x="220" y="449" width="140" height="65" rx="10" fill="#2e7d32"/>
<text x="290" y="481" font-size="17" font-weight="700" text-anchor="middle" fill="white">AdOrchestrator</text>
<text x="290" y="500" font-size="10" text-anchor="middle" fill="#c8e6c9">Orchestrator</text>
<rect x="390" y="449" width="140" height="65" rx="10" fill="#388e3c"/>
<text x="460" y="481" font-size="17" font-weight="700" text-anchor="middle" fill="white">BiddingEngine</text>
<text x="460" y="500" font-size="10" text-anchor="middle" fill="#c8e6c9">Bidding Engine (gRPC)</text>
<rect x="560" y="449" width="130" height="65" rx="10" fill="#43a047" opacity="0.7"/>
<text x="625" y="475" font-size="12" font-weight="700" text-anchor="middle" fill="white">CandidateSvc</text>
<text x="625" y="492" font-size="10" text-anchor="middle" fill="#c8e6c9">Candidate retrieval</text>
<text x="625" y="507" font-size="10" text-anchor="middle" fill="#c8e6c9">ANN / BM25</text>
<rect x="50" y="545" width="480" height="62" rx="10" fill="#004d40"/>
<text x="290" y="576" font-size="17" font-weight="700" text-anchor="middle" fill="white">AuctionEngine — Auction Engine</text>
<text x="290" y="596" font-size="11" text-anchor="middle" fill="#b2dfdb">TSP Auction · TROAS bid computation · bid-logs → Kafka</text>
<rect x="545" y="545" width="145" height="62" rx="10" fill="#1b5e20" opacity="0.85"/>
<text x="617" y="572" font-size="12" font-weight="700" text-anchor="middle" fill="white">BudgetSvc</text>
<text x="617" y="590" font-size="10" text-anchor="middle" fill="#c8e6c9">Budget eligibility</text>
<!-- serving arrows -->
<line x1="190" y1="481" x2="218" y2="481" stroke="#81c784" stroke-width="2.5" marker-end="url(#ag)"/>
<line x1="360" y1="481" x2="388" y2="481" stroke="#81c784" stroke-width="2.5" marker-end="url(#ag)"/>
<line x1="530" y1="481" x2="558" y2="481" stroke="#81c784" stroke-width="2" stroke-dasharray="4,3" marker-end="url(#ag)"/>
<path d="M290 514 L290 545" stroke="#81c784" stroke-width="2.5" marker-end="url(#ag)" fill="none"/>
<path d="M460 514 L460 535 L530 535 L530 545" stroke="#81c784" stroke-width="2" stroke-dasharray="4,3" marker-end="url(#ag)" fill="none"/>
<path d="M625 514 L625 535 L530 535" stroke="#81c784" stroke-width="1.5" stroke-dasharray="3,3" fill="none"/>

<!-- ML PLATFORM PLANE -->
<rect x="750" y="393" width="630" height="290" rx="14" fill="#f3e5f5" stroke="#7b1fa2" stroke-width="2.5"/>
<rect x="750" y="393" width="630" height="38" rx="14" fill="#7b1fa2"/><rect x="750" y="411" width="630" height="20" fill="#7b1fa2"/>
<text x="1065" y="419" font-size="13" font-weight="700" letter-spacing="2" text-anchor="middle" fill="white">ML PLATFORM</text>
<rect x="780" y="449" width="270" height="65" rx="10" fill="#6a1b9a"/>
<text x="915" y="481" font-size="17" font-weight="700" text-anchor="middle" fill="white">MLPlatform</text>
<text x="915" y="500" font-size="10" text-anchor="middle" fill="#e1bee7">ML platform · 4-level inference cache</text>
<rect x="780" y="533" width="270" height="62" rx="10" fill="#7b1fa2"/>
<text x="915" y="560" font-size="15" font-weight="700" text-anchor="middle" fill="white">Feast + Cassandra</text>
<text x="915" y="579" font-size="10" text-anchor="middle" fill="#e1bee7">Online feature store · &lt;10ms</text>
<rect x="1082" y="449" width="270" height="147" rx="10" fill="#4a148c"/>
<text x="1217" y="510" font-size="22" font-weight="700" text-anchor="middle" fill="white">Triton</text>
<text x="1217" y="536" font-size="14" font-weight="600" text-anchor="middle" fill="#ce93d8">H100 GPU Cluster</text>
<text x="1217" y="557" font-size="11" text-anchor="middle" fill="#e1bee7">16 replicas · 3 Azure regions</text>
<text x="1217" y="576" font-size="11" text-anchor="middle" fill="#e1bee7">pCTR · pCVR inference</text>

<!-- CROSS-PLANE ARROWS -->
<!-- Tooling → Kafka (events) -->
<path d="M350 281 L413 281" stroke="#e65100" stroke-width="2.5" marker-end="url(#ao)" fill="none"/>
<text x="380" y="274" font-size="10" text-anchor="middle" fill="#e65100">events</text>
<!-- Solr → Serving -->
<path d="M476 239 L476 373 L180 373 L180 393" stroke="#546e7a" stroke-width="1.8" stroke-dasharray="5,3" marker-end="url(#agy)" fill="none"/>
<!-- Cassandra → Serving -->
<path d="M618 239 L618 383 L380 383 L380 393" stroke="#546e7a" stroke-width="1.8" stroke-dasharray="5,3" marker-end="url(#agy)" fill="none"/>
<!-- Serving → ML (score request) -->
<path d="M715 500 L748 500" stroke="#ab47bc" stroke-width="2.5" marker-end="url(#ap)" fill="none"/>
<path d="M748 530 L715 530" stroke="#ab47bc" stroke-width="2" stroke-dasharray="4,3" marker-end="url(#ap)" fill="none"/>
<text x="732" y="494" font-size="10" text-anchor="middle" fill="#7b1fa2">score→</text>
<text x="732" y="524" font-size="10" text-anchor="middle" fill="#7b1fa2">←feats</text>
</svg>
