<svg width="1400" height="680" viewBox="0 0 1400 680" xmlns="http://www.w3.org/2000/svg" font-family="'Segoe UI', Arial, sans-serif">
<defs>
  <marker id="a1" viewBox="0 0 10 10" refX="9" refY="5" markerWidth="7" markerHeight="7" orient="auto-start-reverse"><path d="M0,0 L10,5 L0,10z" fill="#546e7a"/></marker>
  <marker id="a2" viewBox="0 0 10 10" refX="9" refY="5" markerWidth="7" markerHeight="7" orient="auto-start-reverse"><path d="M0,0 L10,5 L0,10z" fill="#1b5e20"/></marker>
  <marker id="a3" viewBox="0 0 10 10" refX="9" refY="5" markerWidth="7" markerHeight="7" orient="auto-start-reverse"><path d="M0,0 L10,5 L0,10z" fill="#e65100"/></marker>
  <marker id="a4" viewBox="0 0 10 10" refX="9" refY="5" markerWidth="7" markerHeight="7" orient="auto-start-reverse"><path d="M0,0 L10,5 L0,10z" fill="#c62828"/></marker>
</defs>

<rect width="1400" height="680" fill="#f8fafc"/>
<text x="700" y="36" font-size="22" font-weight="700" text-anchor="middle" fill="#1a237e">Bid Computation per Phase — Decision Tree</text>
<text x="700" y="60" font-size="13" text-anchor="middle" fill="#546e7a">AuctionEngine · BidComputationManager · all paths converge to finalCPC with universal safety clamp</text>

<!-- Entry point -->
<rect x="550" y="80" width="300" height="50" rx="12" fill="#1a237e"/>
<text x="700" y="102" font-size="16" font-weight="700" text-anchor="middle" fill="white">TroasBidParams received</text>
<text x="700" y="120" font-size="11" text-anchor="middle" fill="#90caf9">from BiddingEngine via bidParamsNode JSON</text>

<!-- Phase diamond -->
<polygon points="700,155 790,195 700,235 610,195" fill="#e3f2fd" stroke="#1565c0" stroke-width="2.5"/>
<text x="700" y="199" font-size="16" font-weight="700" text-anchor="middle" fill="#1565c0">Phase?</text>

<path d="M700 130 L700 153" stroke="#546e7a" stroke-width="2.5" marker-end="url(#a1)" fill="none"/>

<!-- ─── Branch 1: INIT/TRANSITION ─── -->
<path d="M613 195 L130 195 L130 265" stroke="#546e7a" stroke-width="2" marker-end="url(#a1)" fill="none"/>
<text x="370" y="188" font-size="11" text-anchor="middle" fill="#546e7a">INIT / TRANSITION</text>
<rect x="30" y="265" width="200" height="85" rx="12" fill="#e3f2fd" stroke="#1565c0" stroke-width="2.5"/>
<rect x="30" y="265" width="200" height="32" rx="12" fill="#1565c0"/><rect x="30" y="284" width="200" height="13" fill="#1565c0"/>
<text x="130" y="287" font-size="13" font-weight="700" text-anchor="middle" fill="white">INIT / TRANSITION</text>
<text x="130" y="315" font-size="12" text-anchor="middle" fill="#1565c0">Base bid formula</text>
<text x="130" y="333" font-size="11" text-anchor="middle" fill="#37474f">bidPrime × timeFactor</text>
<text x="130" y="349" font-size="11" text-anchor="middle" fill="#37474f">× pacingFactor</text>

<!-- ─── Branch 2: LEARNING ─── -->
<path d="M613 195 L420 195 L420 265" stroke="#e65100" stroke-width="2" marker-end="url(#a3)" fill="none"/>
<text x="520" y="230" font-size="11" text-anchor="middle" fill="#e65100">LEARNING</text>

<rect x="320" y="265" width="200" height="50" rx="10" fill="#fff3e0" stroke="#e65100" stroke-width="2"/>
<text x="420" y="290" font-size="12" font-weight="700" text-anchor="middle" fill="#e65100">bidPrime available?</text>
<text x="420" y="308" font-size="11" text-anchor="middle" fill="#37474f">(opt algo ConfigSvc flag)</text>

<path d="M420 315 L320 350" stroke="#1b5e20" stroke-width="2" marker-end="url(#a2)" fill="none"/>
<text x="352" y="338" font-size="10" fill="#1b5e20">yes</text>
<rect x="215" y="355" width="200" height="75" rx="10" fill="#e8f5e9" stroke="#2e7d32" stroke-width="2"/>
<text x="315" y="377" font-size="12" font-weight="700" text-anchor="middle" fill="#1b5e20">ROAS-based</text>
<text x="315" y="395" font-size="11" text-anchor="middle" fill="#37474f">bidPrime × timeFactor</text>
<text x="315" y="411" font-size="11" text-anchor="middle" fill="#37474f">× pacingFactor</text>
<text x="315" y="428" font-size="10" text-anchor="middle" fill="#546e7a">Opt-algo for learning</text>

<path d="M420 315 L520 350" stroke="#e65100" stroke-width="2" marker-end="url(#a3)" fill="none"/>
<text x="488" y="338" font-size="10" fill="#e65100">no bidPrime</text>
<rect x="420" y="355" width="200" height="75" rx="10" fill="#fff3e0" stroke="#e65100" stroke-width="2"/>
<text x="520" y="377" font-size="12" font-weight="700" text-anchor="middle" fill="#e65100">Exploration</text>
<text x="520" y="395" font-size="11" text-anchor="middle" fill="#37474f">Bayesian bandit</text>
<text x="520" y="411" font-size="11" text-anchor="middle" fill="#37474f">over bid price buckets</text>
<text x="520" y="428" font-size="10" text-anchor="middle" fill="#546e7a">Beta distributions</text>

<!-- ─── Branch 3: LEARNING_PAUSED ─── -->
<path d="M700 235 L700 265" stroke="#c62828" stroke-width="2" marker-end="url(#a4)" fill="none"/>
<text x="718" y="253" font-size="11" fill="#c62828">LEARNING_PAUSED</text>
<rect x="600" y="265" width="200" height="75" rx="12" fill="#fce4ec" stroke="#c62828" stroke-width="2.5"/>
<rect x="600" y="265" width="200" height="32" rx="12" fill="#c62828"/><rect x="600" y="284" width="200" height="13" fill="#c62828"/>
<text x="700" y="287" font-size="13" font-weight="700" text-anchor="middle" fill="white">PAUSED</text>
<text x="700" y="315" font-size="12" text-anchor="middle" fill="#c62828">No bid emitted</text>
<text x="700" y="333" font-size="11" text-anchor="middle" fill="#37474f">Item excluded from auction</text>

<!-- ─── Branch 4: OPTIMIZATION ─── -->
<path d="M787 195 L980 195 L980 265" stroke="#1b5e20" stroke-width="2" marker-end="url(#a2)" fill="none"/>
<text x="885" y="188" font-size="11" text-anchor="middle" fill="#1b5e20">OPTIMIZATION</text>

<rect x="880" y="265" width="200" height="50" rx="10" fill="#e8f5e9" stroke="#2e7d32" stroke-width="2"/>
<text x="980" y="290" font-size="12" font-weight="700" text-anchor="middle" fill="#1b5e20">Both ML models</text>
<text x="980" y="308" font-size="11" text-anchor="middle" fill="#37474f">available? (full-score)</text>

<path d="M980 315 L880 360" stroke="#1b5e20" stroke-width="2" marker-end="url(#a2)" fill="none"/>
<text x="914" y="342" font-size="10" fill="#1b5e20">yes (full-score)</text>
<rect x="780" y="360" width="200" height="90" rx="10" fill="#e8f5e9" stroke="#1b5e20" stroke-width="2.5"/>
<text x="880" y="382" font-size="12" font-weight="700" text-anchor="middle" fill="#1b5e20">ML-Driven Bid</text>
<text x="880" y="400" font-size="11" text-anchor="middle" fill="#37474f">pCVR + pVPC from Triton</text>
<text x="880" y="416" font-size="11" text-anchor="middle" fill="#37474f">→ ML formula</text>
<text x="880" y="432" font-size="11" text-anchor="middle" fill="#37474f">→ targetRoas constraint</text>
<text x="880" y="448" font-size="10" text-anchor="middle" fill="#546e7a">Optimization path</text>

<path d="M980 315 L1080 360" stroke="#546e7a" stroke-width="2" marker-end="url(#a1)" fill="none"/>
<text x="1046" y="342" font-size="10" fill="#546e7a">no (cold-start)</text>
<rect x="980" y="360" width="200" height="75" rx="10" fill="#f5f5f5" stroke="#78909c" stroke-width="2"/>
<text x="1080" y="382" font-size="12" font-weight="700" text-anchor="middle" fill="#546e7a">ROAS Fallback</text>
<text x="1080" y="400" font-size="11" text-anchor="middle" fill="#37474f">bidPrime × timeFactor</text>
<text x="1080" y="416" font-size="11" text-anchor="middle" fill="#37474f">× pacingFactor</text>
<text x="1080" y="432" font-size="10" text-anchor="middle" fill="#546e7a">Non-full-score path</text>

<!-- ─── Convergence to finalCPC ─── -->
<!-- convergence line from all paths -->
<path d="M130 350 L130 560 L700 560" stroke="#546e7a" stroke-width="1.5" stroke-dasharray="5,3" fill="none"/>
<path d="M315 430 L315 545 L700 545" stroke="#1b5e20" stroke-width="1.5" stroke-dasharray="5,3" fill="none"/>
<path d="M520 430 L520 545 L680 545" stroke="#e65100" stroke-width="1.5" stroke-dasharray="5,3" fill="none"/>
<path d="M880 450 L880 545 L720 545" stroke="#1b5e20" stroke-width="1.5" stroke-dasharray="5,3" fill="none"/>
<path d="M1080 435 L1080 560 L700 560" stroke="#546e7a" stroke-width="1.5" stroke-dasharray="5,3" fill="none"/>

<!-- Universal clamp box -->
<rect x="470" y="560" width="460" height="95" rx="14" fill="#1a237e"/>
<text x="700" y="590" font-size="17" font-weight="700" text-anchor="middle" fill="white">calculateTroasCPC( bid )</text>
<text x="700" y="614" font-size="14" font-weight="600" text-anchor="middle" fill="#90caf9">finalCPC = round( clamp(bid, floor, ceiling), 4dp )</text>
<text x="700" y="638" font-size="12" text-anchor="middle" fill="#bbdefb">Default: $0.20 floor · $5.00 ceiling · both ConfigSvc-configurable</text>

<path d="M700 555 L700 558" stroke="#546e7a" stroke-width="2" fill="none"/>

<!-- PAUSED does NOT converge - draw X -->
<text x="690" y="460" font-size="30" font-weight="700" fill="#c62828">✗</text>
<text x="668" y="490" font-size="11" text-anchor="middle" fill="#c62828">no bid</text>
</svg>
